<svg width="18" height="18" viewBox="0 0 18 18" fill="none" xmlns="http://www.w3.org/2000/svg">
<path fill-rule="evenodd" clip-rule="evenodd" d="M0.58686 12.04L5.35902 7.26799L5.5358 7.09122L5.35902 6.91444L3.45028 5.00572C3.31159 4.86682 3.21247 4.69325 3.16339 4.5032C3.1143 4.3131 3.11697 4.11333 3.17111 3.92461C3.22525 3.73588 3.32889 3.56508 3.47129 3.42992C3.61367 3.29477 3.78968 3.20016 3.98094 3.15591L16.3882 0.29263C16.5699 0.250845 16.7593 0.255929 16.9385 0.307406C17.1178 0.35889 17.281 0.455089 17.4129 0.586971C17.5448 0.718852 17.641 0.882088 17.6925 1.06135C17.744 1.24058 17.7491 1.43006 17.7073 1.61179L14.844 14.019C14.7998 14.2102 14.7052 14.3861 14.5701 14.5285C14.4349 14.6709 14.2641 14.7746 14.0754 14.8287C13.8866 14.8828 13.6869 14.8855 13.4968 14.8364C13.3067 14.7873 13.1332 14.6883 12.9943 14.5495L11.0855 12.6408L10.9087 12.464L10.732 12.6408L5.95985 17.4129C5.85775 17.5151 5.73653 17.5961 5.6031 17.6514C5.46968 17.7067 5.32667 17.7352 5.18224 17.7352C5.03782 17.7352 4.89481 17.7067 4.76138 17.6514C4.62796 17.5961 4.50669 17.5151 4.40459 17.4129L0.58686 13.5953C0.48471 13.4932 0.403677 13.3719 0.34839 13.2385C0.293104 13.1051 0.264648 12.9621 0.264648 12.8177C0.264648 12.6732 0.293104 12.5302 0.34839 12.3968C0.403677 12.2634 0.48471 12.1421 0.58686 12.04ZM5.18224 15.08L5.35902 14.9033L7.92105 12.3413L9.35352 10.9089L10.1312 10.1311C10.2332 10.029 10.3545 9.94798 10.4879 9.89269C10.6213 9.83741 10.7643 9.80895 10.9087 9.80895C11.0532 9.80895 11.1962 9.83741 11.3296 9.89269C11.463 9.94798 11.5843 10.0291 11.6864 10.1312L12.828 11.2728L13.147 11.5917L13.2484 11.1522L15.078 3.22157L15.168 2.83186L14.7782 2.92177L6.84769 4.75152L6.40816 4.85292L6.72712 5.17189L7.86877 6.31357C7.97092 6.41566 8.05196 6.53688 8.10724 6.67031C8.16253 6.80373 8.19098 6.94674 8.19098 7.09116C8.19098 7.23558 8.16253 7.37859 8.10724 7.51201C8.05196 7.64544 7.97088 7.76671 7.86873 7.8688L7.09108 8.64645L3.57477 12.1628L3.09661 12.6409L2.91983 12.8177L3.09661 12.9944L5.00547 14.9033L5.18224 15.08Z" fill="#3CBFFD"/>
</svg>
