<svg width="19" height="18" viewBox="0 0 19 18" fill="none" xmlns="http://www.w3.org/2000/svg">
<path fill-rule="evenodd" clip-rule="evenodd" d="M12.6885 5.38061L17.7557 6.11776C17.9448 6.14522 18.1225 6.22505 18.2686 6.34822C18.4147 6.47136 18.5235 6.63303 18.5826 6.81474C18.6415 6.99631 18.6484 7.19071 18.6027 7.37602C18.5569 7.56136 18.4603 7.73023 18.3237 7.86356L14.6563 11.438L14.5998 11.4931L14.6132 11.5708L15.4787 16.6173C15.511 16.8056 15.4899 16.9991 15.4179 17.1761C15.3458 17.353 15.2257 17.5063 15.0711 17.6186C14.9165 17.7308 14.7336 17.7976 14.5431 17.8113C14.3525 17.825 14.1619 17.7851 13.9928 17.6961L9.46105 15.3139L9.39125 15.2772L9.32145 15.3139L4.78966 17.6961C4.62059 17.7851 4.42999 17.825 4.23943 17.8113C4.04887 17.7976 3.86595 17.7308 3.71135 17.6186C3.55675 17.5063 3.43665 17.353 3.36463 17.1761C3.2926 16.9991 3.27153 16.8055 3.3038 16.6172L4.16932 11.5708L4.18265 11.4931L4.12618 11.438L0.458774 7.8635C0.322048 7.73014 0.225362 7.56119 0.17965 7.37576C0.133934 7.1903 0.141026 6.99576 0.200121 6.81413C0.259216 6.63249 0.367958 6.47102 0.514046 6.34797C0.660135 6.22492 0.837851 6.1452 1.02688 6.11783L6.094 5.38061L6.17201 5.36926L6.20691 5.29857L8.47348 0.706987C8.63949 0.36917 9.00598 0.188965 9.39125 0.188965C9.77652 0.188965 10.1431 0.36941 10.3091 0.707227L12.5756 5.29857L12.6105 5.36926L12.6885 5.38061ZM13.0585 14.6188L12.4911 11.3079C12.463 11.1444 12.4751 10.9765 12.5263 10.8187C12.5775 10.6609 12.6663 10.5179 12.785 10.402L15.1902 8.05773L15.4078 7.84565L15.1071 7.80188L11.7837 7.31809C11.6194 7.29439 11.4632 7.231 11.3289 7.13346C11.1946 7.03593 11.0861 6.90715 11.0128 6.75826L9.52575 3.74653L9.39125 3.47412L9.25675 3.74653L7.76979 6.75812C7.69646 6.907 7.5879 7.03592 7.45362 7.13346C7.31934 7.23099 7.16332 7.29436 6.99905 7.31806L3.67544 7.80188L3.37477 7.84564L3.59234 8.05772L5.99744 10.4021C6.11615 10.518 6.20493 10.6609 6.25613 10.8187C6.30734 10.9765 6.31942 11.1445 6.29133 11.308L5.72393 14.6188L5.67261 14.9183L5.94157 14.7769L8.91433 13.2143C9.06135 13.1368 9.22504 13.0963 9.39123 13.0963C9.55742 13.0963 9.72127 13.1369 9.86829 13.2144L12.8408 14.7769L13.1098 14.9183L13.0585 14.6188Z" fill="#3CBFFD"/>
</svg>
