<svg width="340" height="43" viewBox="0 0 340 43" fill="none" xmlns="http://www.w3.org/2000/svg">
<path d="M14.8126 28.24C15.7726 28.576 16.5246 29.104 17.0686 29.824C17.6126 30.528 17.8846 31.384 17.8846 32.392C17.8846 33.864 17.2926 35 16.1086 35.8C14.9246 36.6 13.2126 37 10.9726 37H1.90063V20.2H10.4926C12.6366 20.2 14.2686 20.6 15.3886 21.4C16.5086 22.184 17.0686 23.248 17.0686 24.592C17.0686 25.392 16.8686 26.112 16.4686 26.752C16.0846 27.376 15.5326 27.872 14.8126 28.24ZM6.60463 23.632V26.872H9.86863C11.4686 26.872 12.2686 26.328 12.2686 25.24C12.2686 24.168 11.4686 23.632 9.86863 23.632H6.60463ZM10.5886 33.568C12.2526 33.568 13.0846 33 13.0846 31.864C13.0846 30.728 12.2526 30.16 10.5886 30.16H6.60463V33.568H10.5886ZM34.4819 33.736H27.3779L26.0579 37H21.2099L28.6259 20.2H33.3059L40.7459 37H35.8019L34.4819 33.736ZM33.0899 30.232L30.9299 24.856L28.7699 30.232H33.0899ZM60.9571 20.2V37H57.0451L49.6291 28.048V37H44.9731V20.2H48.8851L56.3011 29.152V20.2H60.9571ZM73.6691 30.904L71.8931 32.8V37H67.1891V20.2H71.8931V27.184L78.3971 20.2H83.6291L76.7651 27.64L83.9891 37H78.4691L73.6691 30.904ZM101.604 33.328V37H88.1159V20.2H101.292V23.872H92.8199V26.704H100.284V30.256H92.8199V33.328H101.604ZM110.697 23.968H105.537V20.2H120.585V23.968H115.449V37H110.697V23.968ZM170.597 37.336C169.237 37.336 167.917 37.168 166.637 36.832C165.357 36.496 164.317 36.048 163.517 35.488L165.077 31.984C165.829 32.48 166.701 32.88 167.693 33.184C168.685 33.488 169.661 33.64 170.621 33.64C172.445 33.64 173.357 33.184 173.357 32.272C173.357 31.792 173.093 31.44 172.565 31.216C172.053 30.976 171.221 30.728 170.069 30.472C168.805 30.2 167.749 29.912 166.901 29.608C166.053 29.288 165.325 28.784 164.717 28.096C164.109 27.408 163.805 26.48 163.805 25.312C163.805 24.288 164.085 23.368 164.645 22.552C165.205 21.72 166.037 21.064 167.141 20.584C168.261 20.104 169.629 19.864 171.245 19.864C172.349 19.864 173.437 19.992 174.509 20.248C175.581 20.488 176.525 20.848 177.341 21.328L175.877 24.856C174.277 23.992 172.725 23.56 171.221 23.56C170.277 23.56 169.589 23.704 169.157 23.992C168.725 24.264 168.509 24.624 168.509 25.072C168.509 25.52 168.765 25.856 169.277 26.08C169.789 26.304 170.613 26.536 171.749 26.776C173.029 27.048 174.085 27.344 174.917 27.664C175.765 27.968 176.493 28.464 177.101 29.152C177.725 29.824 178.037 30.744 178.037 31.912C178.037 32.92 177.757 33.832 177.197 34.648C176.637 35.464 175.797 36.12 174.677 36.616C173.557 37.096 172.197 37.336 170.597 37.336ZM194.368 33.736H187.264L185.944 37H181.096L188.512 20.2H193.192L200.632 37H195.688L194.368 33.736ZM192.976 30.232L190.816 24.856L188.656 30.232H192.976ZM220.027 37L219.979 28.096L215.659 35.344H213.547L209.251 28.336V37H204.859V20.2H208.771L214.675 29.896L220.435 20.2H224.347L224.395 37H220.027ZM241.894 33.736H234.79L233.47 37H228.622L236.038 20.2H240.718L248.158 37H243.214L241.894 33.736ZM240.502 30.232L238.342 24.856L236.182 30.232H240.502ZM259.729 32.536H257.137V37H252.385V20.2H260.065C261.585 20.2 262.905 20.456 264.025 20.968C265.145 21.464 266.009 22.184 266.617 23.128C267.225 24.056 267.529 25.152 267.529 26.416C267.529 27.632 267.241 28.696 266.665 29.608C266.105 30.504 265.297 31.208 264.241 31.72L267.865 37H262.777L259.729 32.536ZM262.729 26.416C262.729 25.632 262.481 25.024 261.985 24.592C261.489 24.16 260.753 23.944 259.777 23.944H257.137V28.864H259.777C260.753 28.864 261.489 28.656 261.985 28.24C262.481 27.808 262.729 27.2 262.729 26.416ZM286.518 33.328V37H273.03V20.2H286.206V23.872H277.734V26.704H285.198V30.256H277.734V33.328H286.518ZM293.974 37.216C293.206 37.216 292.558 36.96 292.03 36.448C291.502 35.936 291.238 35.288 291.238 34.504C291.238 33.704 291.494 33.056 292.006 32.56C292.534 32.064 293.19 31.816 293.974 31.816C294.774 31.816 295.43 32.064 295.942 32.56C296.454 33.056 296.71 33.704 296.71 34.504C296.71 35.288 296.446 35.936 295.918 36.448C295.406 36.96 294.758 37.216 293.974 37.216ZM309.291 32.536H306.699V37H301.947V20.2H309.627C311.147 20.2 312.467 20.456 313.587 20.968C314.707 21.464 315.571 22.184 316.179 23.128C316.787 24.056 317.091 25.152 317.091 26.416C317.091 27.632 316.803 28.696 316.227 29.608C315.667 30.504 314.859 31.208 313.803 31.72L317.427 37H312.339L309.291 32.536ZM312.291 26.416C312.291 25.632 312.043 25.024 311.547 24.592C311.051 24.16 310.315 23.944 309.339 23.944H306.699V28.864H309.339C310.315 28.864 311.051 28.656 311.547 28.24C312.043 27.808 312.291 27.2 312.291 26.416ZM330.344 37.336C327.848 37.336 325.904 36.656 324.512 35.296C323.136 33.936 322.448 32.008 322.448 29.512V20.2H327.2V29.368C327.2 32.056 328.264 33.4 330.392 33.4C332.504 33.4 333.56 32.056 333.56 29.368V20.2H338.24V29.512C338.24 32.008 337.544 33.936 336.152 35.296C334.776 36.656 332.84 37.336 330.344 37.336Z" fill="#383838"/>
<path d="M131 20.9976C141.377 7.45199 149.238 3.04462 165 0L141.775 40L131 20.9976Z" fill="#00ACFF" fill-opacity="0.75"/>
<path d="M119 0C135.381 3.56634 142.873 8.15033 153 21.2157L142.049 40L119 0Z" fill="#FF4A71" fill-opacity="0.69"/>
</svg>
