<svg width="16" height="16" viewBox="0 0 16 16" fill="none" xmlns="http://www.w3.org/2000/svg">
<path d="M5.76165 6.99428C6.61236 8.31346 7.67249 9.37142 8.98455 10.2139C9.13833 10.0539 9.27903 9.89713 9.43281 9.75019C10.0807 9.12326 10.8365 8.94366 11.6872 9.24081C12.2925 9.44979 12.9077 9.59346 13.5392 9.69795C14.5338 9.86448 15.2439 10.6351 15.2897 11.6473C15.3224 12.4245 15.3289 13.2049 15.2864 13.982C15.2144 15.2718 14.1477 16.1077 12.8651 15.951C10.9379 15.7159 9.12197 15.1412 7.4369 14.1779C3.76246 12.0751 1.41318 8.95999 0.362874 4.87183C0.209091 4.27754 0.117475 3.66693 0.0389471 3.05958C-0.118108 1.86122 0.745695 0.793462 1.9596 0.721625C2.75142 0.675911 3.55306 0.675911 4.34488 0.71836C5.39191 0.770605 6.13465 1.52489 6.31134 2.57632C6.40623 3.13795 6.54365 3.69305 6.72034 4.23509C7.02136 5.14938 6.8643 5.93632 6.17719 6.61224C6.04958 6.73305 5.90561 6.8604 5.76165 6.99428ZM13.9056 12.8261C13.9056 12.4833 13.9056 12.1404 13.9056 11.7975C13.9056 11.7877 13.9056 11.7747 13.9056 11.7649C13.8991 11.3959 13.67 11.1216 13.3036 11.0661C12.5837 10.9584 11.8835 10.7886 11.1997 10.5404C10.9085 10.4359 10.6533 10.5012 10.4373 10.72C10.1625 10.9943 9.89089 11.2686 9.61604 11.5396C9.33138 11.8204 9.02709 11.8563 8.68026 11.6571C6.84467 10.5926 5.39191 9.14285 4.32525 7.31428C4.11911 6.96162 4.15837 6.66122 4.44631 6.36734C4.71788 6.09305 4.996 5.82203 5.26758 5.54775C5.47371 5.33877 5.5457 5.0906 5.44426 4.81305C5.19232 4.11428 5.01563 3.39918 4.90766 2.66775C4.85858 2.34122 4.58046 2.09958 4.24672 2.09632C3.52688 2.08979 2.80704 2.08652 2.08721 2.09632C1.68148 2.10285 1.38046 2.46203 1.423 2.86693C1.51788 3.76162 1.69784 4.63999 1.98578 5.49224C3.21604 9.11673 5.55551 11.7682 9.01727 13.4204C10.3162 14.0408 11.6839 14.4196 13.1171 14.5698C13.5686 14.6188 13.8991 14.3086 13.9023 13.8547C13.9089 13.5118 13.9056 13.169 13.9056 12.8261Z" fill="white"/>
<path d="M16.0004 6.15183C16.0004 6.58285 15.7255 6.88979 15.3754 6.92244C15.0122 6.9551 14.6817 6.72652 14.6261 6.36408C14.541 5.81877 14.4363 5.28326 14.2106 4.77714C13.3402 2.84408 11.8547 1.71428 9.75086 1.40408C9.43348 1.35836 9.19135 1.22122 9.09319 0.904485C9.00812 0.630199 9.07683 0.388565 9.28624 0.189382C9.44984 0.032647 9.6527 -0.0195979 9.8752 0.00978983C12.8985 0.395096 15.2314 2.52408 15.8924 5.49877C15.9415 5.73387 15.9709 5.97877 16.0004 6.15183Z" fill="white"/>
<path d="M12.5078 6.92897C12.1609 6.92897 11.8959 6.70692 11.8141 6.33468C11.7094 5.84488 11.4935 5.41386 11.1564 5.04162C10.7474 4.58774 10.2403 4.3004 9.64151 4.17305C9.30123 4.10121 9.07546 3.84978 9.0591 3.53632C9.03947 3.20979 9.21615 2.91591 9.52372 2.83101C9.66442 2.79183 9.83129 2.7853 9.97198 2.81795C11.68 3.2457 12.7532 4.31672 13.1785 6.02448C13.2996 6.51754 12.9789 6.92897 12.5078 6.92897Z" fill="white"/>
</svg>
