<svg width="18" height="18" viewBox="0 0 18 18" fill="none" xmlns="http://www.w3.org/2000/svg">
<path fill-rule="evenodd" clip-rule="evenodd" d="M4.27227 0.189965C4.85321 0.0852063 5.381 0.151072 5.82817 0.36958C6.27521 0.588029 6.64822 0.96223 6.9145 1.48528C7.52291 2.67595 8.11838 3.87342 8.71398 5.0777C9.15706 5.97011 8.89566 7.11823 8.10505 7.7708L8.10088 7.77444C8.04708 7.8241 7.98914 7.86992 7.90613 7.93556C7.86274 7.96987 7.8125 8.0096 7.75242 8.05812L7.66591 8.12799L7.74454 8.20663L9.83254 10.2946L9.90557 10.3677L9.9762 10.2923L10.0175 10.2484C10.0875 10.1743 10.1365 10.1224 10.1745 10.0661C10.3309 9.86078 10.5069 9.68779 10.6976 9.54818C11.3816 9.04743 12.2536 8.97617 13.0793 9.38412C13.4743 9.57929 13.8682 9.78014 14.2626 9.98126C14.9746 10.3443 15.6883 10.7082 16.4135 11.0414C17.0032 11.3109 17.4314 11.7237 17.6705 12.2341C17.9097 12.7446 17.9637 13.3603 17.7917 14.0417C17.3045 15.984 15.988 17.1126 14.099 17.6219L14.086 17.6254C12.0104 18.1826 10.0047 17.8601 8.10931 16.8963C4.60155 15.1196 2.03462 12.4411 0.650034 8.72933C-0.0423417 6.8722 -0.0737715 4.96764 0.694487 3.12124C1.35644 1.52098 2.54041 0.504266 4.27227 0.189965ZM6.77936 6.06917L6.7054 6.11819C6.53374 6.23193 6.36557 6.34467 6.19941 6.45607L6.19846 6.4567C5.84124 6.69617 5.49331 6.92942 5.14 7.15305C5.04255 7.2171 4.99272 7.27302 4.97196 7.32625C4.9526 7.37591 4.95221 7.44164 4.99478 7.54097C5.04002 7.64914 5.08144 7.7569 5.12227 7.86314L5.12266 7.86414C5.22245 8.12379 5.31876 8.37441 5.45864 8.60009C6.49798 10.2565 7.84842 11.6132 9.51684 12.6324L9.51786 12.633C9.67636 12.7325 9.85236 12.8083 10.0384 12.8787C10.1097 12.9056 10.1841 12.9324 10.2595 12.9595C10.3761 13.0013 10.4951 13.0441 10.6083 13.0897L10.6099 13.0904C10.6755 13.1182 10.714 13.1132 10.7422 13.1C10.7762 13.0842 10.8141 13.0479 10.8597 12.9781C11.0078 12.7412 11.1622 12.5096 11.3166 12.2792L11.3587 12.2164L11.3608 12.2132C11.4544 12.0737 11.5477 11.9344 11.6398 11.7942C11.6856 11.7244 11.7311 11.6544 11.7761 11.5839L11.7766 11.583C11.8344 11.4947 11.9015 11.4158 11.9976 11.386C12.0963 11.3553 12.1966 11.3847 12.2986 11.4375C13.3455 11.9675 14.3987 12.4973 15.4517 13.014C15.5412 13.057 15.6182 13.1117 15.6613 13.1956C15.7049 13.2803 15.7044 13.3756 15.6826 13.4777C15.5052 14.3636 14.9637 14.9646 14.1645 15.31C13.8579 15.4414 13.5494 15.5396 13.2396 15.6076C12.2734 15.8197 11.2946 15.7378 10.3201 15.4515C8.49941 14.9152 6.9998 13.8567 5.67015 12.5468C4.30086 11.1973 3.19647 9.65833 2.62074 7.79216C2.2356 6.53714 2.21469 5.27678 2.68177 4.03568C3.01271 3.16442 3.6268 2.55357 4.58919 2.37588C4.66424 2.36112 4.75155 2.37914 4.8197 2.40528C4.8556 2.41904 4.89101 2.43687 4.92176 2.45819C4.95119 2.47859 4.98313 2.50686 5.0034 2.54403L5.00454 2.54617C5.4127 3.33957 5.81137 4.13646 6.21586 4.94498C6.38894 5.29095 6.56309 5.63904 6.7395 5.98991L6.77936 6.06917Z" fill="#414141"/>
<path d="M4.25452 0.0915527L4.27227 0.189965M4.27227 0.189965C4.85321 0.0852063 5.381 0.151072 5.82817 0.36958C6.27521 0.588029 6.64822 0.96223 6.9145 1.48528C7.52291 2.67595 8.11838 3.87342 8.71398 5.0777C9.15706 5.97011 8.89566 7.11823 8.10505 7.7708L8.10088 7.77444C8.04708 7.8241 7.98914 7.86992 7.90613 7.93556C7.86274 7.96987 7.8125 8.0096 7.75242 8.05812L7.66591 8.12799L7.74454 8.20663L9.83254 10.2946L9.90557 10.3677L9.9762 10.2923M4.27227 0.189965C2.54041 0.504266 1.35644 1.52098 0.694487 3.12124C-0.0737715 4.96764 -0.0423417 6.8722 0.650034 8.72933C2.03462 12.4411 4.60155 15.1196 8.10931 16.8963C10.0047 17.8601 12.0104 18.1826 14.086 17.6254M9.9762 10.2923C9.99075 10.2768 10.0045 10.2622 10.0175 10.2484M9.9762 10.2923L10.0175 10.2484M10.0175 10.2484C10.0875 10.1743 10.1365 10.1224 10.1745 10.0661C10.3309 9.86078 10.5069 9.68779 10.6976 9.54818C11.3816 9.04743 12.2536 8.97617 13.0793 9.38412C13.4743 9.57929 13.8682 9.78014 14.2626 9.98126C14.9746 10.3443 15.6883 10.7082 16.4135 11.0414C17.0032 11.3109 17.4314 11.7237 17.6705 12.2341C17.9097 12.7446 17.9637 13.3603 17.7917 14.0417C17.3045 15.984 15.988 17.1126 14.099 17.6219M14.099 17.6219C14.0947 17.623 14.0904 17.6242 14.086 17.6254M14.099 17.6219L14.086 17.6254M14.1251 17.7185L14.086 17.6254M11.3587 12.2164C11.3447 12.2373 11.3307 12.2582 11.3166 12.2792M11.3587 12.2164L11.3608 12.2132C11.4544 12.0737 11.5477 11.9344 11.6398 11.7942C11.6856 11.7244 11.7311 11.6544 11.7761 11.5839L11.7766 11.583C11.8344 11.4947 11.9015 11.4158 11.9976 11.386C12.0963 11.3553 12.1966 11.3847 12.2986 11.4375C13.3455 11.9675 14.3987 12.4973 15.4517 13.014C15.5412 13.057 15.6182 13.1117 15.6613 13.1956C15.7049 13.2803 15.7044 13.3756 15.6826 13.4777C15.5052 14.3636 14.9637 14.9646 14.1645 15.31C13.8579 15.4414 13.5494 15.5396 13.2396 15.6076C12.2734 15.8197 11.2946 15.7378 10.3201 15.4515C8.49941 14.9152 6.9998 13.8567 5.67015 12.5468C4.30086 11.1973 3.19647 9.65833 2.62074 7.79216C2.2356 6.53714 2.21469 5.27678 2.68177 4.03568C3.01271 3.16442 3.6268 2.55357 4.58919 2.37588C4.66424 2.36112 4.75155 2.37914 4.8197 2.40528C4.8556 2.41904 4.89101 2.43687 4.92176 2.45819C4.95119 2.47859 4.98313 2.50686 5.0034 2.54403L5.00454 2.54617C5.4127 3.33957 5.81137 4.13646 6.21586 4.94498C6.38894 5.29095 6.56309 5.63904 6.7395 5.98991L6.77936 6.06917L6.7054 6.11819C6.53374 6.23193 6.36557 6.34467 6.19941 6.45607L6.19846 6.4567C5.84124 6.69617 5.49331 6.92942 5.14 7.15305C5.04255 7.2171 4.99272 7.27302 4.97196 7.32625C4.9526 7.37591 4.95221 7.44164 4.99478 7.54097C5.04002 7.64914 5.08144 7.7569 5.12227 7.86314L5.12266 7.86414C5.22245 8.12379 5.31876 8.37441 5.45864 8.60009C6.49798 10.2565 7.84842 11.6132 9.51684 12.6324L9.51786 12.633C9.67636 12.7325 9.85236 12.8083 10.0384 12.8787C10.1097 12.9056 10.1841 12.9324 10.2595 12.9595C10.3761 13.0013 10.4951 13.0441 10.6083 13.0897L10.6099 13.0904C10.6755 13.1182 10.714 13.1132 10.7422 13.1C10.7762 13.0842 10.8141 13.0479 10.8597 12.9781C11.0078 12.7412 11.1622 12.5096 11.3166 12.2792M11.3587 12.2164L11.3166 12.2792" stroke="#F1F5F8" stroke-width="0.2"/>
</svg>
